<svg xmlns="http://www.w3.org/2000/svg" xmlns:xlink="http://www.w3.org/1999/xlink" width="400" zoomAndPan="magnify" viewBox="0 0 300 149.999998" height="200" preserveAspectRatio="xMidYMid meet" version="1.0"><defs><g/></defs><g fill="#000000" fill-opacity="1"><g transform="translate(1.53403, 88.02214)"><g><path d="M 10.140625 -34.921875 L 10.296875 -31.046875 C 12.859375 -34.066406 16.3125 -35.578125 20.65625 -35.578125 C 25.539062 -35.578125 28.867188 -33.703125 30.640625 -29.953125 C 31.796875 -31.628906 33.304688 -32.984375 35.171875 -34.015625 C 37.035156 -35.054688 39.234375 -35.578125 41.765625 -35.578125 C 49.429688 -35.578125 53.328125 -31.519531 53.453125 -23.40625 L 53.453125 0 L 47.484375 0 L 47.484375 -23.046875 C 47.484375 -25.546875 46.910156 -27.410156 45.765625 -28.640625 C 44.628906 -29.878906 42.71875 -30.5 40.03125 -30.5 C 37.8125 -30.5 35.96875 -29.835938 34.5 -28.515625 C 33.039062 -27.191406 32.191406 -25.410156 31.953125 -23.171875 L 31.953125 0 L 25.953125 0 L 25.953125 -22.890625 C 25.953125 -27.960938 23.46875 -30.5 18.5 -30.5 C 14.582031 -30.5 11.898438 -28.832031 10.453125 -25.5 L 10.453125 0 L 4.484375 0 L 4.484375 -34.921875 Z M 10.140625 -34.921875 "/></g></g></g><g fill="#000000" fill-opacity="1"><g transform="translate(56.169996, 88.02214)"><g><path d="M 24.859375 -9.265625 C 24.859375 -10.878906 24.25 -12.128906 23.03125 -13.015625 C 21.8125 -13.910156 19.691406 -14.679688 16.671875 -15.328125 C 13.648438 -15.972656 11.25 -16.75 9.46875 -17.65625 C 7.695312 -18.5625 6.382812 -19.632812 5.53125 -20.875 C 4.6875 -22.125 4.265625 -23.613281 4.265625 -25.34375 C 4.265625 -28.207031 5.472656 -30.628906 7.890625 -32.609375 C 10.316406 -34.585938 13.410156 -35.578125 17.171875 -35.578125 C 21.128906 -35.578125 24.335938 -34.550781 26.796875 -32.5 C 29.265625 -30.457031 30.5 -27.84375 30.5 -24.65625 L 24.5 -24.65625 C 24.5 -26.289062 23.804688 -27.703125 22.421875 -28.890625 C 21.035156 -30.078125 19.285156 -30.671875 17.171875 -30.671875 C 14.992188 -30.671875 13.289062 -30.195312 12.0625 -29.25 C 10.84375 -28.300781 10.234375 -27.0625 10.234375 -25.53125 C 10.234375 -24.09375 10.800781 -23.003906 11.9375 -22.265625 C 13.082031 -21.535156 15.144531 -20.835938 18.125 -20.171875 C 21.101562 -19.503906 23.515625 -18.707031 25.359375 -17.78125 C 27.210938 -16.851562 28.585938 -15.738281 29.484375 -14.4375 C 30.378906 -13.144531 30.828125 -11.5625 30.828125 -9.6875 C 30.828125 -6.5625 29.578125 -4.054688 27.078125 -2.171875 C 24.585938 -0.296875 21.347656 0.640625 17.359375 0.640625 C 14.566406 0.640625 12.09375 0.144531 9.9375 -0.84375 C 7.789062 -1.832031 6.109375 -3.210938 4.890625 -4.984375 C 3.671875 -6.765625 3.0625 -8.6875 3.0625 -10.75 L 9.03125 -10.75 C 9.144531 -8.75 9.945312 -7.160156 11.4375 -5.984375 C 12.9375 -4.816406 14.910156 -4.234375 17.359375 -4.234375 C 19.617188 -4.234375 21.429688 -4.6875 22.796875 -5.59375 C 24.171875 -6.507812 24.859375 -7.734375 24.859375 -9.265625 Z M 24.859375 -9.265625 "/></g></g></g><g fill="#000000" fill-opacity="1"><g transform="translate(86.951266, 88.02214)"><g><path d="M 11 0 L 5.03125 0 L 5.03125 -49.578125 L 11 -49.578125 Z M 11 0 "/></g></g></g><g fill="#000000" fill-opacity="1"><g transform="translate(99.68819, 88.02214)"><g><path d="M 26.078125 0 C 25.734375 -0.6875 25.457031 -1.914062 25.25 -3.6875 C 22.46875 -0.800781 19.148438 0.640625 15.296875 0.640625 C 11.859375 0.640625 9.035156 -0.332031 6.828125 -2.28125 C 4.617188 -4.226562 3.515625 -6.695312 3.515625 -9.6875 C 3.515625 -13.320312 4.894531 -16.144531 7.65625 -18.15625 C 10.425781 -20.164062 14.316406 -21.171875 19.328125 -21.171875 L 25.140625 -21.171875 L 25.140625 -23.921875 C 25.140625 -26.003906 24.515625 -27.664062 23.265625 -28.90625 C 22.023438 -30.144531 20.1875 -30.765625 17.75 -30.765625 C 15.625 -30.765625 13.835938 -30.222656 12.390625 -29.140625 C 10.953125 -28.066406 10.234375 -26.769531 10.234375 -25.25 L 4.234375 -25.25 C 4.234375 -26.988281 4.847656 -28.671875 6.078125 -30.296875 C 7.316406 -31.921875 8.992188 -33.207031 11.109375 -34.15625 C 13.234375 -35.101562 15.566406 -35.578125 18.109375 -35.578125 C 22.128906 -35.578125 25.28125 -34.566406 27.5625 -32.546875 C 29.84375 -30.535156 31.03125 -27.769531 31.125 -24.25 L 31.125 -8.171875 C 31.125 -4.960938 31.53125 -2.410156 32.34375 -0.515625 L 32.34375 0 Z M 16.171875 -4.546875 C 18.046875 -4.546875 19.820312 -5.03125 21.5 -6 C 23.175781 -6.96875 24.390625 -8.226562 25.140625 -9.78125 L 25.140625 -16.953125 L 20.46875 -16.953125 C 13.144531 -16.953125 9.484375 -14.804688 9.484375 -10.515625 C 9.484375 -8.648438 10.109375 -7.1875 11.359375 -6.125 C 12.609375 -5.070312 14.210938 -4.546875 16.171875 -4.546875 Z M 16.171875 -4.546875 "/></g></g></g><g fill="#000000" fill-opacity="1"><g transform="translate(132.341675, 88.02214)"><g><path d="M 18.53125 -4.234375 C 20.65625 -4.234375 22.515625 -4.878906 24.109375 -6.171875 C 25.703125 -7.460938 26.585938 -9.070312 26.765625 -11 L 32.40625 -11 C 32.300781 -9 31.613281 -7.09375 30.34375 -5.28125 C 29.070312 -3.476562 27.375 -2.039062 25.25 -0.96875 C 23.132812 0.101562 20.894531 0.640625 18.53125 0.640625 C 13.769531 0.640625 9.984375 -0.941406 7.171875 -4.109375 C 4.367188 -7.285156 2.96875 -11.628906 2.96875 -17.140625 L 2.96875 -18.140625 C 2.96875 -21.535156 3.59375 -24.554688 4.84375 -27.203125 C 6.09375 -29.859375 7.882812 -31.914062 10.21875 -33.375 C 12.550781 -34.84375 15.3125 -35.578125 18.5 -35.578125 C 22.414062 -35.578125 25.671875 -34.398438 28.265625 -32.046875 C 30.859375 -29.703125 32.238281 -26.660156 32.40625 -22.921875 L 26.765625 -22.921875 C 26.585938 -25.179688 25.726562 -27.035156 24.1875 -28.484375 C 22.65625 -29.941406 20.757812 -30.671875 18.5 -30.671875 C 15.457031 -30.671875 13.101562 -29.578125 11.4375 -27.390625 C 9.769531 -25.203125 8.9375 -22.046875 8.9375 -17.921875 L 8.9375 -16.78125 C 8.9375 -12.757812 9.765625 -9.660156 11.421875 -7.484375 C 13.078125 -5.316406 15.445312 -4.234375 18.53125 -4.234375 Z M 18.53125 -4.234375 "/></g></g></g><g fill="#000000" fill-opacity="1"><g transform="translate(163.639414, 88.02214)"><g><path d="M 19.015625 0.640625 C 14.273438 0.640625 10.421875 -0.910156 7.453125 -4.015625 C 4.484375 -7.128906 3 -11.289062 3 -16.5 L 3 -17.59375 C 3 -21.0625 3.660156 -24.15625 4.984375 -26.875 C 6.304688 -29.59375 8.15625 -31.722656 10.53125 -33.265625 C 12.914062 -34.804688 15.492188 -35.578125 18.265625 -35.578125 C 22.804688 -35.578125 26.335938 -34.078125 28.859375 -31.078125 C 31.378906 -28.085938 32.640625 -23.804688 32.640625 -18.234375 L 32.640625 -15.75 L 8.96875 -15.75 C 9.0625 -12.3125 10.066406 -9.53125 11.984375 -7.40625 C 13.910156 -5.289062 16.359375 -4.234375 19.328125 -4.234375 C 21.441406 -4.234375 23.226562 -4.660156 24.6875 -5.515625 C 26.15625 -6.378906 27.4375 -7.519531 28.53125 -8.9375 L 32.1875 -6.09375 C 29.257812 -1.601562 24.867188 0.640625 19.015625 0.640625 Z M 18.265625 -30.671875 C 15.859375 -30.671875 13.835938 -29.789062 12.203125 -28.03125 C 10.566406 -26.28125 9.554688 -23.820312 9.171875 -20.65625 L 26.65625 -20.65625 L 26.65625 -21.109375 C 26.488281 -24.140625 25.671875 -26.488281 24.203125 -28.15625 C 22.742188 -29.832031 20.765625 -30.671875 18.265625 -30.671875 Z M 18.265625 -30.671875 "/></g></g></g><g fill="#000000" fill-opacity="1"><g transform="translate(195.356794, 88.02214)"><g><path d="M 21.40625 -29.5625 C 20.5 -29.71875 19.519531 -29.796875 18.46875 -29.796875 C 14.550781 -29.796875 11.890625 -28.128906 10.484375 -24.796875 L 10.484375 0 L 4.515625 0 L 4.515625 -34.921875 L 10.328125 -34.921875 L 10.421875 -30.890625 C 12.378906 -34.015625 15.15625 -35.578125 18.75 -35.578125 C 19.914062 -35.578125 20.800781 -35.425781 21.40625 -35.125 Z M 21.40625 -29.5625 "/></g></g></g><g fill="#000000" fill-opacity="1"><g transform="translate(214.420537, 88.02214)"><g><path d="M 3.0625 -17.75 C 3.0625 -23.113281 4.332031 -27.425781 6.875 -30.6875 C 9.414062 -33.945312 12.738281 -35.578125 16.84375 -35.578125 C 20.9375 -35.578125 24.175781 -34.175781 26.5625 -31.375 L 26.5625 -49.578125 L 32.53125 -49.578125 L 32.53125 0 L 27.046875 0 L 26.765625 -3.75 C 24.367188 -0.820312 21.039062 0.640625 16.78125 0.640625 C 12.738281 0.640625 9.441406 -1.015625 6.890625 -4.328125 C 4.335938 -7.640625 3.0625 -11.960938 3.0625 -17.296875 Z M 9.03125 -17.078125 C 9.03125 -13.117188 9.847656 -10.019531 11.484375 -7.78125 C 13.117188 -5.539062 15.378906 -4.421875 18.265625 -4.421875 C 22.054688 -4.421875 24.820312 -6.117188 26.5625 -9.515625 L 26.5625 -25.5625 C 24.78125 -28.851562 22.035156 -30.5 18.328125 -30.5 C 15.398438 -30.5 13.117188 -29.367188 11.484375 -27.109375 C 9.847656 -24.847656 9.03125 -21.503906 9.03125 -17.078125 Z M 9.03125 -17.078125 "/></g></g></g><g fill="#000000" fill-opacity="1"><g transform="translate(248.397509, 88.02214)"><g><path d="M 26.078125 0 C 25.734375 -0.6875 25.457031 -1.914062 25.25 -3.6875 C 22.46875 -0.800781 19.148438 0.640625 15.296875 0.640625 C 11.859375 0.640625 9.035156 -0.332031 6.828125 -2.28125 C 4.617188 -4.226562 3.515625 -6.695312 3.515625 -9.6875 C 3.515625 -13.320312 4.894531 -16.144531 7.65625 -18.15625 C 10.425781 -20.164062 14.316406 -21.171875 19.328125 -21.171875 L 25.140625 -21.171875 L 25.140625 -23.921875 C 25.140625 -26.003906 24.515625 -27.664062 23.265625 -28.90625 C 22.023438 -30.144531 20.1875 -30.765625 17.75 -30.765625 C 15.625 -30.765625 13.835938 -30.222656 12.390625 -29.140625 C 10.953125 -28.066406 10.234375 -26.769531 10.234375 -25.25 L 4.234375 -25.25 C 4.234375 -26.988281 4.847656 -28.671875 6.078125 -30.296875 C 7.316406 -31.921875 8.992188 -33.207031 11.109375 -34.15625 C 13.234375 -35.101562 15.566406 -35.578125 18.109375 -35.578125 C 22.128906 -35.578125 25.28125 -34.566406 27.5625 -32.546875 C 29.84375 -30.535156 31.03125 -27.769531 31.125 -24.25 L 31.125 -8.171875 C 31.125 -4.960938 31.53125 -2.410156 32.34375 -0.515625 L 32.34375 0 Z M 16.171875 -4.546875 C 18.046875 -4.546875 19.820312 -5.03125 21.5 -6 C 23.175781 -6.96875 24.390625 -8.226562 25.140625 -9.78125 L 25.140625 -16.953125 L 20.46875 -16.953125 C 13.144531 -16.953125 9.484375 -14.804688 9.484375 -10.515625 C 9.484375 -8.648438 10.109375 -7.1875 11.359375 -6.125 C 12.609375 -5.070312 14.210938 -4.546875 16.171875 -4.546875 Z M 16.171875 -4.546875 "/></g></g></g><g fill="#000000" fill-opacity="1"><g transform="translate(281.051007, 88.02214)"><g><path d="M 4.640625 -3.125 C 4.640625 -4.164062 4.945312 -5.03125 5.5625 -5.71875 C 6.175781 -6.40625 7.097656 -6.75 8.328125 -6.75 C 9.554688 -6.75 10.488281 -6.40625 11.125 -5.71875 C 11.757812 -5.03125 12.078125 -4.164062 12.078125 -3.125 C 12.078125 -2.132812 11.757812 -1.304688 11.125 -0.640625 C 10.488281 0.0234375 9.554688 0.359375 8.328125 0.359375 C 7.097656 0.359375 6.175781 0.0234375 5.5625 -0.640625 C 4.945312 -1.304688 4.640625 -2.132812 4.640625 -3.125 Z M 4.640625 -3.125 "/></g></g></g><g fill="#000000" fill-opacity="1"><g transform="translate(1.53403, 127.933275)"><g><path d="M 5 0 L 0.8125 0 C 0.6875 0 0.625 -0.0546875 0.625 -0.171875 L 0.625 -0.921875 C 0.625 -1.035156 0.6875 -1.09375 0.8125 -1.09375 L 1.9375 -1.09375 L 1.9375 -9.40625 L 0.8125 -9.40625 C 0.6875 -9.40625 0.625 -9.46875 0.625 -9.59375 L 0.625 -10.34375 C 0.625 -10.457031 0.6875 -10.515625 0.8125 -10.515625 L 4.765625 -10.515625 C 6.378906 -10.515625 7.664062 -10.046875 8.625 -9.109375 C 9.582031 -8.179688 10.0625 -6.898438 10.0625 -5.265625 C 10.0625 -3.640625 9.601562 -2.351562 8.6875 -1.40625 C 7.78125 -0.46875 6.550781 0 5 0 Z M 3.203125 -1.09375 L 4.65625 -1.09375 C 7.363281 -1.113281 8.71875 -2.492188 8.71875 -5.234375 C 8.71875 -6.554688 8.367188 -7.582031 7.671875 -8.3125 C 6.972656 -9.039062 5.953125 -9.40625 4.609375 -9.40625 L 3.203125 -9.40625 Z M 3.203125 -1.09375 "/></g></g></g><g fill="#000000" fill-opacity="1"><g transform="translate(13.10057, 127.933275)"><g><path d="M 11.25 0 L 7.9375 0 C 7.820312 0 7.765625 -0.0546875 7.765625 -0.171875 L 7.765625 -0.921875 C 7.765625 -1.035156 7.820312 -1.09375 7.9375 -1.09375 L 8.953125 -1.09375 L 8.015625 -3.625 L 3.921875 -3.625 L 2.96875 -1.09375 L 4 -1.09375 C 4.113281 -1.09375 4.171875 -1.035156 4.171875 -0.921875 L 4.171875 -0.171875 C 4.171875 -0.0546875 4.113281 0 4 0 L 0.703125 0 C 0.585938 0 0.53125 -0.0546875 0.53125 -0.171875 L 0.53125 -0.921875 C 0.53125 -1.035156 0.585938 -1.09375 0.703125 -1.09375 L 1.6875 -1.09375 L 4.828125 -9.40625 L 4.046875 -9.40625 C 3.910156 -9.40625 3.84375 -9.46875 3.84375 -9.59375 L 3.84375 -10.34375 C 3.84375 -10.457031 3.910156 -10.515625 4.046875 -10.515625 L 6.03125 -10.515625 C 6.269531 -10.515625 6.445312 -10.460938 6.5625 -10.359375 C 6.6875 -10.265625 6.789062 -10.101562 6.875 -9.875 L 10.25 -1.09375 L 11.25 -1.09375 C 11.363281 -1.09375 11.421875 -1.035156 11.421875 -0.921875 L 11.421875 -0.171875 C 11.421875 -0.0546875 11.363281 0 11.25 0 Z M 7.609375 -4.640625 L 5.984375 -8.984375 L 5.9375 -8.984375 L 4.296875 -4.640625 Z M 7.609375 -4.640625 "/></g></g></g><g fill="#000000" fill-opacity="1"><g transform="translate(26.145865, 127.933275)"><g><path d="M 7 0 L 3.59375 0 C 3.457031 0 3.390625 -0.0625 3.390625 -0.1875 L 3.390625 -0.90625 C 3.390625 -1.03125 3.457031 -1.09375 3.59375 -1.09375 L 4.703125 -1.09375 L 4.703125 -9.40625 L 1.9375 -9.40625 L 1.9375 -7.859375 C 1.9375 -7.722656 1.867188 -7.65625 1.734375 -7.65625 L 0.90625 -7.65625 C 0.769531 -7.65625 0.703125 -7.722656 0.703125 -7.859375 L 0.703125 -10.328125 C 0.703125 -10.453125 0.769531 -10.515625 0.90625 -10.515625 L 9.734375 -10.515625 C 9.867188 -10.515625 9.9375 -10.453125 9.9375 -10.328125 L 9.9375 -7.859375 C 9.9375 -7.722656 9.867188 -7.65625 9.734375 -7.65625 L 8.90625 -7.65625 C 8.78125 -7.65625 8.71875 -7.722656 8.71875 -7.859375 L 8.71875 -9.40625 L 5.96875 -9.40625 L 5.96875 -1.09375 L 7 -1.09375 C 7.132812 -1.09375 7.203125 -1.03125 7.203125 -0.90625 L 7.203125 -0.1875 C 7.203125 -0.0625 7.132812 0 7 0 Z M 7 0 "/></g></g></g><g fill="#000000" fill-opacity="1"><g transform="translate(37.522067, 127.933275)"><g><path d="M 11.25 0 L 7.9375 0 C 7.820312 0 7.765625 -0.0546875 7.765625 -0.171875 L 7.765625 -0.921875 C 7.765625 -1.035156 7.820312 -1.09375 7.9375 -1.09375 L 8.953125 -1.09375 L 8.015625 -3.625 L 3.921875 -3.625 L 2.96875 -1.09375 L 4 -1.09375 C 4.113281 -1.09375 4.171875 -1.035156 4.171875 -0.921875 L 4.171875 -0.171875 C 4.171875 -0.0546875 4.113281 0 4 0 L 0.703125 0 C 0.585938 0 0.53125 -0.0546875 0.53125 -0.171875 L 0.53125 -0.921875 C 0.53125 -1.035156 0.585938 -1.09375 0.703125 -1.09375 L 1.6875 -1.09375 L 4.828125 -9.40625 L 4.046875 -9.40625 C 3.910156 -9.40625 3.84375 -9.46875 3.84375 -9.59375 L 3.84375 -10.34375 C 3.84375 -10.457031 3.910156 -10.515625 4.046875 -10.515625 L 6.03125 -10.515625 C 6.269531 -10.515625 6.445312 -10.460938 6.5625 -10.359375 C 6.6875 -10.265625 6.789062 -10.101562 6.875 -9.875 L 10.25 -1.09375 L 11.25 -1.09375 C 11.363281 -1.09375 11.421875 -1.035156 11.421875 -0.921875 L 11.421875 -0.171875 C 11.421875 -0.0546875 11.363281 0 11.25 0 Z M 7.609375 -4.640625 L 5.984375 -8.984375 L 5.9375 -8.984375 L 4.296875 -4.640625 Z M 7.609375 -4.640625 "/></g></g></g><g fill="#000000" fill-opacity="1"><g transform="translate(50.567364, 127.933275)"><g/></g></g><g fill="#000000" fill-opacity="1"><g transform="translate(55.882121, 127.933275)"><g><path d="M 1.71875 0 L 0.890625 0 C 0.765625 0 0.703125 -0.0546875 0.703125 -0.171875 L 0.703125 -3.609375 C 0.703125 -3.734375 0.765625 -3.796875 0.890625 -3.796875 L 1.8125 -3.796875 C 1.925781 -3.796875 1.984375 -3.734375 1.984375 -3.609375 L 1.984375 -3.296875 C 1.984375 -3.109375 2.097656 -2.859375 2.328125 -2.546875 C 2.554688 -2.242188 2.78125 -1.992188 3 -1.796875 C 3.226562 -1.609375 3.53125 -1.441406 3.90625 -1.296875 C 4.28125 -1.148438 4.6875 -1.078125 5.125 -1.078125 C 5.875 -1.078125 6.460938 -1.234375 6.890625 -1.546875 C 7.316406 -1.859375 7.53125 -2.296875 7.53125 -2.859375 C 7.53125 -3.179688 7.410156 -3.457031 7.171875 -3.6875 C 6.929688 -3.914062 6.617188 -4.097656 6.234375 -4.234375 C 5.859375 -4.367188 5.4375 -4.492188 4.96875 -4.609375 C 4.507812 -4.722656 4.046875 -4.851562 3.578125 -5 C 3.117188 -5.15625 2.695312 -5.335938 2.3125 -5.546875 C 1.9375 -5.765625 1.628906 -6.0625 1.390625 -6.4375 C 1.148438 -6.8125 1.03125 -7.253906 1.03125 -7.765625 C 1.03125 -8.578125 1.335938 -9.25 1.953125 -9.78125 C 2.578125 -10.320312 3.410156 -10.59375 4.453125 -10.59375 C 5.765625 -10.59375 6.726562 -10.207031 7.34375 -9.4375 L 7.3125 -10.34375 C 7.3125 -10.46875 7.378906 -10.53125 7.515625 -10.53125 L 8.328125 -10.53125 C 8.441406 -10.53125 8.5 -10.46875 8.5 -10.34375 L 8.5 -7.15625 C 8.5 -7.039062 8.441406 -6.984375 8.328125 -6.984375 L 7.40625 -6.984375 C 7.289062 -6.984375 7.234375 -7.039062 7.234375 -7.15625 L 7.234375 -7.5625 C 7.234375 -7.96875 7.007812 -8.375 6.5625 -8.78125 C 6.113281 -9.195312 5.453125 -9.40625 4.578125 -9.40625 C 3.929688 -9.40625 3.410156 -9.25 3.015625 -8.9375 C 2.628906 -8.632812 2.4375 -8.242188 2.4375 -7.765625 C 2.4375 -7.421875 2.554688 -7.125 2.796875 -6.875 C 3.035156 -6.632812 3.347656 -6.441406 3.734375 -6.296875 C 4.128906 -6.148438 4.5625 -6.015625 5.03125 -5.890625 C 5.5 -5.765625 5.96875 -5.628906 6.4375 -5.484375 C 6.90625 -5.335938 7.332031 -5.160156 7.71875 -4.953125 C 8.113281 -4.753906 8.429688 -4.476562 8.671875 -4.125 C 8.921875 -3.769531 9.046875 -3.347656 9.046875 -2.859375 C 9.046875 -1.992188 8.738281 -1.28125 8.125 -0.71875 C 7.507812 -0.164062 6.59375 0.109375 5.375 0.109375 C 4.476562 0.109375 3.734375 -0.0703125 3.140625 -0.4375 C 2.554688 -0.800781 2.132812 -1.191406 1.875 -1.609375 L 1.890625 -0.171875 C 1.890625 -0.0546875 1.832031 0 1.71875 0 Z M 1.71875 0 "/></g></g></g><g fill="#000000" fill-opacity="1"><g transform="translate(66.365215, 127.933275)"><g><path d="M 10.203125 -2.65625 C 10.253906 -2.613281 10.28125 -2.566406 10.28125 -2.515625 C 10.28125 -2.460938 10.253906 -2.390625 10.203125 -2.296875 C 10.160156 -2.203125 10.085938 -2.078125 9.984375 -1.921875 C 9.890625 -1.773438 9.707031 -1.566406 9.4375 -1.296875 C 9.175781 -1.035156 8.890625 -0.8125 8.578125 -0.625 C 8.265625 -0.4375 7.851562 -0.265625 7.34375 -0.109375 C 6.832031 0.0351562 6.28125 0.109375 5.6875 0.109375 C 4.269531 0.109375 3.082031 -0.390625 2.125 -1.390625 C 1.175781 -2.390625 0.703125 -3.695312 0.703125 -5.3125 C 0.703125 -6.925781 1.179688 -8.207031 2.140625 -9.15625 C 3.109375 -10.113281 4.269531 -10.59375 5.625 -10.59375 C 7.132812 -10.59375 8.234375 -10.070312 8.921875 -9.03125 L 8.90625 -10.34375 C 8.882812 -10.457031 8.941406 -10.515625 9.078125 -10.515625 L 9.890625 -10.515625 C 10.023438 -10.515625 10.09375 -10.457031 10.09375 -10.34375 L 10.09375 -7.140625 C 10.09375 -7.015625 10.023438 -6.953125 9.890625 -6.953125 L 8.96875 -6.953125 C 8.851562 -6.953125 8.796875 -7.015625 8.796875 -7.140625 L 8.796875 -7.28125 C 8.796875 -7.726562 8.488281 -8.191406 7.875 -8.671875 C 7.269531 -9.160156 6.515625 -9.40625 5.609375 -9.40625 C 4.703125 -9.40625 3.882812 -9.046875 3.15625 -8.328125 C 2.425781 -7.609375 2.0625 -6.59375 2.0625 -5.28125 C 2.0625 -3.96875 2.425781 -2.945312 3.15625 -2.21875 C 3.894531 -1.488281 4.753906 -1.125 5.734375 -1.125 C 6.796875 -1.125 7.632812 -1.363281 8.25 -1.84375 C 8.726562 -2.21875 9.082031 -2.59375 9.3125 -2.96875 C 9.382812 -3.113281 9.476562 -3.144531 9.59375 -3.0625 Z M 10.203125 -2.65625 "/></g></g></g><g fill="#000000" fill-opacity="1"><g transform="translate(78.107448, 127.933275)"><g><path d="M 4.40625 0 L 0.890625 0 C 0.765625 0 0.703125 -0.0546875 0.703125 -0.171875 L 0.703125 -0.921875 C 0.703125 -1.035156 0.765625 -1.09375 0.890625 -1.09375 L 2 -1.09375 L 2 -9.40625 L 0.890625 -9.40625 C 0.765625 -9.40625 0.703125 -9.46875 0.703125 -9.59375 L 0.703125 -10.34375 C 0.703125 -10.457031 0.765625 -10.515625 0.890625 -10.515625 L 4.40625 -10.515625 C 4.53125 -10.515625 4.59375 -10.457031 4.59375 -10.34375 L 4.59375 -9.59375 C 4.59375 -9.46875 4.53125 -9.40625 4.40625 -9.40625 L 3.28125 -9.40625 L 3.28125 -1.09375 L 4.40625 -1.09375 C 4.53125 -1.09375 4.59375 -1.035156 4.59375 -0.921875 L 4.59375 -0.171875 C 4.59375 -0.0546875 4.53125 0 4.40625 0 Z M 4.40625 0 "/></g></g></g><g fill="#000000" fill-opacity="1"><g transform="translate(84.139624, 127.933275)"><g><path d="M 8.671875 0 L 0.890625 0 C 0.765625 0 0.703125 -0.0546875 0.703125 -0.171875 L 0.703125 -0.921875 C 0.703125 -1.035156 0.765625 -1.09375 0.890625 -1.09375 L 2 -1.09375 L 2 -9.40625 L 0.890625 -9.40625 C 0.765625 -9.40625 0.703125 -9.46875 0.703125 -9.59375 L 0.703125 -10.34375 C 0.703125 -10.457031 0.765625 -10.515625 0.890625 -10.515625 L 8.671875 -10.515625 C 8.796875 -10.515625 8.859375 -10.457031 8.859375 -10.34375 L 8.859375 -7.984375 C 8.859375 -7.847656 8.796875 -7.78125 8.671875 -7.78125 L 7.875 -7.78125 C 7.757812 -7.78125 7.703125 -7.847656 7.703125 -7.984375 L 7.703125 -9.40625 L 3.28125 -9.40625 L 3.28125 -5.78125 L 6.984375 -5.78125 C 7.109375 -5.78125 7.171875 -5.722656 7.171875 -5.609375 L 7.171875 -4.859375 C 7.171875 -4.742188 7.109375 -4.6875 6.984375 -4.6875 L 3.28125 -4.6875 L 3.28125 -1.09375 L 7.6875 -1.09375 L 7.6875 -2.53125 C 7.6875 -2.644531 7.75 -2.703125 7.875 -2.703125 L 8.671875 -2.703125 C 8.796875 -2.703125 8.859375 -2.644531 8.859375 -2.53125 L 8.859375 -0.171875 C 8.859375 -0.0546875 8.796875 0 8.671875 0 Z M 8.671875 0 "/></g></g></g><g fill="#000000" fill-opacity="1"><g transform="translate(94.432382, 127.933275)"><g><path d="M 9.8125 0 L 9.015625 0 C 8.828125 0 8.679688 -0.0351562 8.578125 -0.109375 C 8.472656 -0.179688 8.367188 -0.296875 8.265625 -0.453125 L 4.046875 -7.078125 L 3.3125 -8.296875 L 3.28125 -8.296875 L 3.28125 -1.09375 L 4.40625 -1.09375 C 4.53125 -1.09375 4.59375 -1.035156 4.59375 -0.921875 L 4.59375 -0.171875 C 4.59375 -0.0546875 4.53125 0 4.40625 0 L 0.890625 0 C 0.765625 0 0.703125 -0.0546875 0.703125 -0.171875 L 0.703125 -0.921875 C 0.703125 -1.035156 0.765625 -1.09375 0.890625 -1.09375 L 2 -1.09375 L 2 -9.40625 L 0.890625 -9.40625 C 0.765625 -9.40625 0.703125 -9.46875 0.703125 -9.59375 L 0.703125 -10.34375 C 0.703125 -10.457031 0.765625 -10.515625 0.890625 -10.515625 L 2.9375 -10.515625 C 3.226562 -10.515625 3.476562 -10.347656 3.6875 -10.015625 L 7.859375 -3.484375 L 8.703125 -2.0625 L 8.71875 -2.0625 L 8.71875 -9.40625 L 7.59375 -9.40625 C 7.476562 -9.40625 7.421875 -9.46875 7.421875 -9.59375 L 7.421875 -10.34375 C 7.421875 -10.457031 7.476562 -10.515625 7.59375 -10.515625 L 11.125 -10.515625 C 11.238281 -10.515625 11.296875 -10.457031 11.296875 -10.34375 L 11.296875 -9.59375 C 11.296875 -9.46875 11.238281 -9.40625 11.125 -9.40625 L 10 -9.40625 L 10 -0.171875 C 10 -0.0546875 9.9375 0 9.8125 0 Z M 9.8125 0 "/></g></g></g><g fill="#000000" fill-opacity="1"><g transform="translate(107.17022, 127.933275)"><g><path d="M 7 0 L 3.59375 0 C 3.457031 0 3.390625 -0.0625 3.390625 -0.1875 L 3.390625 -0.90625 C 3.390625 -1.03125 3.457031 -1.09375 3.59375 -1.09375 L 4.703125 -1.09375 L 4.703125 -9.40625 L 1.9375 -9.40625 L 1.9375 -7.859375 C 1.9375 -7.722656 1.867188 -7.65625 1.734375 -7.65625 L 0.90625 -7.65625 C 0.769531 -7.65625 0.703125 -7.722656 0.703125 -7.859375 L 0.703125 -10.328125 C 0.703125 -10.453125 0.769531 -10.515625 0.90625 -10.515625 L 9.734375 -10.515625 C 9.867188 -10.515625 9.9375 -10.453125 9.9375 -10.328125 L 9.9375 -7.859375 C 9.9375 -7.722656 9.867188 -7.65625 9.734375 -7.65625 L 8.90625 -7.65625 C 8.78125 -7.65625 8.71875 -7.722656 8.71875 -7.859375 L 8.71875 -9.40625 L 5.96875 -9.40625 L 5.96875 -1.09375 L 7 -1.09375 C 7.132812 -1.09375 7.203125 -1.03125 7.203125 -0.90625 L 7.203125 -0.1875 C 7.203125 -0.0625 7.132812 0 7 0 Z M 7 0 "/></g></g></g><g fill="#000000" fill-opacity="1"><g transform="translate(118.546425, 127.933275)"><g><path d="M 4.40625 0 L 0.890625 0 C 0.765625 0 0.703125 -0.0546875 0.703125 -0.171875 L 0.703125 -0.921875 C 0.703125 -1.035156 0.765625 -1.09375 0.890625 -1.09375 L 2 -1.09375 L 2 -9.40625 L 0.890625 -9.40625 C 0.765625 -9.40625 0.703125 -9.46875 0.703125 -9.59375 L 0.703125 -10.34375 C 0.703125 -10.457031 0.765625 -10.515625 0.890625 -10.515625 L 4.40625 -10.515625 C 4.53125 -10.515625 4.59375 -10.457031 4.59375 -10.34375 L 4.59375 -9.59375 C 4.59375 -9.46875 4.53125 -9.40625 4.40625 -9.40625 L 3.28125 -9.40625 L 3.28125 -1.09375 L 4.40625 -1.09375 C 4.53125 -1.09375 4.59375 -1.035156 4.59375 -0.921875 L 4.59375 -0.171875 C 4.59375 -0.0546875 4.53125 0 4.40625 0 Z M 4.40625 0 "/></g></g></g><g fill="#000000" fill-opacity="1"><g transform="translate(124.578593, 127.933275)"><g><path d="M 1.71875 0 L 0.890625 0 C 0.765625 0 0.703125 -0.0546875 0.703125 -0.171875 L 0.703125 -3.609375 C 0.703125 -3.734375 0.765625 -3.796875 0.890625 -3.796875 L 1.8125 -3.796875 C 1.925781 -3.796875 1.984375 -3.734375 1.984375 -3.609375 L 1.984375 -3.296875 C 1.984375 -3.109375 2.097656 -2.859375 2.328125 -2.546875 C 2.554688 -2.242188 2.78125 -1.992188 3 -1.796875 C 3.226562 -1.609375 3.53125 -1.441406 3.90625 -1.296875 C 4.28125 -1.148438 4.6875 -1.078125 5.125 -1.078125 C 5.875 -1.078125 6.460938 -1.234375 6.890625 -1.546875 C 7.316406 -1.859375 7.53125 -2.296875 7.53125 -2.859375 C 7.53125 -3.179688 7.410156 -3.457031 7.171875 -3.6875 C 6.929688 -3.914062 6.617188 -4.097656 6.234375 -4.234375 C 5.859375 -4.367188 5.4375 -4.492188 4.96875 -4.609375 C 4.507812 -4.722656 4.046875 -4.851562 3.578125 -5 C 3.117188 -5.15625 2.695312 -5.335938 2.3125 -5.546875 C 1.9375 -5.765625 1.628906 -6.0625 1.390625 -6.4375 C 1.148438 -6.8125 1.03125 -7.253906 1.03125 -7.765625 C 1.03125 -8.578125 1.335938 -9.25 1.953125 -9.78125 C 2.578125 -10.320312 3.410156 -10.59375 4.453125 -10.59375 C 5.765625 -10.59375 6.726562 -10.207031 7.34375 -9.4375 L 7.3125 -10.34375 C 7.3125 -10.46875 7.378906 -10.53125 7.515625 -10.53125 L 8.328125 -10.53125 C 8.441406 -10.53125 8.5 -10.46875 8.5 -10.34375 L 8.5 -7.15625 C 8.5 -7.039062 8.441406 -6.984375 8.328125 -6.984375 L 7.40625 -6.984375 C 7.289062 -6.984375 7.234375 -7.039062 7.234375 -7.15625 L 7.234375 -7.5625 C 7.234375 -7.96875 7.007812 -8.375 6.5625 -8.78125 C 6.113281 -9.195312 5.453125 -9.40625 4.578125 -9.40625 C 3.929688 -9.40625 3.410156 -9.25 3.015625 -8.9375 C 2.628906 -8.632812 2.4375 -8.242188 2.4375 -7.765625 C 2.4375 -7.421875 2.554688 -7.125 2.796875 -6.875 C 3.035156 -6.632812 3.347656 -6.441406 3.734375 -6.296875 C 4.128906 -6.148438 4.5625 -6.015625 5.03125 -5.890625 C 5.5 -5.765625 5.96875 -5.628906 6.4375 -5.484375 C 6.90625 -5.335938 7.332031 -5.160156 7.71875 -4.953125 C 8.113281 -4.753906 8.429688 -4.476562 8.671875 -4.125 C 8.921875 -3.769531 9.046875 -3.347656 9.046875 -2.859375 C 9.046875 -1.992188 8.738281 -1.28125 8.125 -0.71875 C 7.507812 -0.164062 6.59375 0.109375 5.375 0.109375 C 4.476562 0.109375 3.734375 -0.0703125 3.140625 -0.4375 C 2.554688 -0.800781 2.132812 -1.191406 1.875 -1.609375 L 1.890625 -0.171875 C 1.890625 -0.0546875 1.832031 0 1.71875 0 Z M 1.71875 0 "/></g></g></g><g fill="#000000" fill-opacity="1"><g transform="translate(135.06168, 127.933275)"><g><path d="M 7 0 L 3.59375 0 C 3.457031 0 3.390625 -0.0625 3.390625 -0.1875 L 3.390625 -0.90625 C 3.390625 -1.03125 3.457031 -1.09375 3.59375 -1.09375 L 4.703125 -1.09375 L 4.703125 -9.40625 L 1.9375 -9.40625 L 1.9375 -7.859375 C 1.9375 -7.722656 1.867188 -7.65625 1.734375 -7.65625 L 0.90625 -7.65625 C 0.769531 -7.65625 0.703125 -7.722656 0.703125 -7.859375 L 0.703125 -10.328125 C 0.703125 -10.453125 0.769531 -10.515625 0.90625 -10.515625 L 9.734375 -10.515625 C 9.867188 -10.515625 9.9375 -10.453125 9.9375 -10.328125 L 9.9375 -7.859375 C 9.9375 -7.722656 9.867188 -7.65625 9.734375 -7.65625 L 8.90625 -7.65625 C 8.78125 -7.65625 8.71875 -7.722656 8.71875 -7.859375 L 8.71875 -9.40625 L 5.96875 -9.40625 L 5.96875 -1.09375 L 7 -1.09375 C 7.132812 -1.09375 7.203125 -1.03125 7.203125 -0.90625 L 7.203125 -0.1875 C 7.203125 -0.0625 7.132812 0 7 0 Z M 7 0 "/></g></g></g></svg>